<svg xmlns="http://www.w3.org/2000/svg" xmlns:xlink="http://www.w3.org/1999/xlink" width="2000" zoomAndPan="magnify" viewBox="0 0 1500 1499.999933" height="2000" preserveAspectRatio="xMidYMid meet" version="1.0"><defs><g/><clipPath id="8b73c34b58"><path d="M 525.449219 72.953125 L 1006.796875 72.953125 L 1006.796875 948 L 525.449219 948 Z M 525.449219 72.953125 " clip-rule="nonzero"/></clipPath><clipPath id="102a3efc71"><path d="M 1006.75 535.828125 C 1006.75 535.828125 970.464844 486.914062 936.90625 429.921875 C 903.234375 372.816406 846.128906 266.566406 828.039062 224.136719 C 798.125 154.519531 779.582031 72.953125 779.582031 72.953125 C 779.582031 72.953125 738.628906 173.96875 791.640625 333.113281 C 822.238281 424.800781 863.304688 544.699219 807.90625 587.929688 C 785.609375 605.445312 749.207031 611.476562 719.175781 593.503906 C 685.050781 573.027344 670.035156 517.058594 682.660156 466.324219 C 704.046875 380.890625 743.179688 284.769531 691.761719 178.863281 C 676.632812 230.28125 640.570312 327.539062 610.085938 393.632812 C 573.910156 472.351562 525.449219 535.828125 525.449219 535.828125 L 714.738281 907.921875 C 742.953125 963.324219 822.921875 960.820312 847.605469 903.714844 Z M 1006.75 535.828125 " clip-rule="nonzero"/></clipPath></defs><g clip-path="url(#8b73c34b58)"><g clip-path="url(#102a3efc71)"><path fill="#be1e2d" d="M 525.449219 72.953125 L 1006.796875 72.953125 L 1006.796875 947.277344 L 525.449219 947.277344 Z M 525.449219 72.953125 " fill-opacity="1" fill-rule="nonzero"/></g></g><g fill="#1c75bc" fill-opacity="1"><g transform="translate(205.061127, 1254.457165)"><g><path d="M 57.609375 0 C 48.191406 0 39.679688 -2.09375 32.078125 -6.28125 C 24.484375 -10.46875 18.523438 -16.132812 14.203125 -23.28125 C 9.890625 -30.4375 7.734375 -38.398438 7.734375 -47.171875 C 7.734375 -56.316406 10.113281 -65.007812 14.875 -73.25 C 19.644531 -81.5 25.894531 -88.132812 33.625 -93.15625 C 41.363281 -98.1875 49.359375 -100.703125 57.609375 -100.703125 C 65.847656 -100.703125 73.832031 -98.1875 81.5625 -93.15625 C 89.300781 -88.132812 95.550781 -81.5 100.3125 -73.25 C 105.082031 -65.007812 107.46875 -56.316406 107.46875 -47.171875 C 107.46875 -38.398438 105.304688 -30.4375 100.984375 -23.28125 C 96.671875 -16.132812 90.710938 -10.46875 83.109375 -6.28125 C 75.515625 -2.09375 67.015625 0 57.609375 0 Z M 57.609375 -20.6875 C 65.597656 -20.6875 72.203125 -23.164062 77.421875 -28.125 C 82.640625 -33.082031 85.25 -39.429688 85.25 -47.171875 C 85.25 -52.453125 83.863281 -57.632812 81.09375 -62.71875 C 78.320312 -67.8125 74.773438 -71.96875 70.453125 -75.1875 C 66.140625 -78.414062 61.859375 -80.03125 57.609375 -80.03125 C 53.347656 -80.03125 49.054688 -78.414062 44.734375 -75.1875 C 40.421875 -71.96875 36.878906 -67.8125 34.109375 -62.71875 C 31.347656 -57.632812 29.96875 -52.453125 29.96875 -47.171875 C 29.96875 -39.429688 32.578125 -33.082031 37.796875 -28.125 C 43.015625 -23.164062 49.617188 -20.6875 57.609375 -20.6875 Z M 42.328125 -114.625 C 38.972656 -114.625 36.171875 -115.78125 33.921875 -118.09375 C 31.671875 -120.414062 30.546875 -123.316406 30.546875 -126.796875 C 30.546875 -130.273438 31.671875 -133.175781 33.921875 -135.5 C 36.171875 -137.820312 38.972656 -138.984375 42.328125 -138.984375 C 45.679688 -138.984375 48.484375 -137.851562 50.734375 -135.59375 C 52.992188 -133.34375 54.125 -130.410156 54.125 -126.796875 C 54.125 -123.316406 52.992188 -120.414062 50.734375 -118.09375 C 48.484375 -115.78125 45.679688 -114.625 42.328125 -114.625 Z M 72.875 -114.625 C 69.519531 -114.625 66.710938 -115.78125 64.453125 -118.09375 C 62.203125 -120.414062 61.078125 -123.316406 61.078125 -126.796875 C 61.078125 -130.273438 62.203125 -133.175781 64.453125 -135.5 C 66.710938 -137.820312 69.519531 -138.984375 72.875 -138.984375 C 76.21875 -138.984375 79.015625 -137.851562 81.265625 -135.59375 C 83.523438 -133.34375 84.65625 -130.410156 84.65625 -126.796875 C 84.65625 -123.316406 83.523438 -120.414062 81.265625 -118.09375 C 79.015625 -115.78125 76.21875 -114.625 72.875 -114.625 Z M 72.875 -114.625 "/></g></g></g><g fill="#1c75bc" fill-opacity="1"><g transform="translate(324.136802, 1254.457165)"><g><path d="M -3.859375 23 C 4.128906 23.519531 9.894531 22.003906 13.4375 18.453125 C 16.976562 14.910156 18.75 8.890625 18.75 0.390625 L 18.75 -93.9375 L 40.984375 -93.9375 L 40.984375 0.390625 C 40.984375 13.921875 37.304688 24.484375 29.953125 32.078125 C 22.609375 39.679688 12.492188 43.613281 -0.390625 43.875 Z M -3.859375 23 "/></g></g></g><g fill="#1c75bc" fill-opacity="1"><g transform="translate(376.715669, 1254.457165)"><g><path d="M 39.625 0 L 17.390625 0 L 17.390625 -143.234375 L 39.625 -143.234375 Z M 39.625 0 "/></g></g></g><g fill="#1c75bc" fill-opacity="1"><g transform="translate(433.740537, 1254.457165)"><g><path d="M 62.234375 -20.6875 C 64.816406 -20.6875 66.109375 -17.269531 66.109375 -10.4375 C 66.109375 -3.476562 64.816406 0 62.234375 0 L 40.984375 0 L 40.984375 0.390625 C 40.984375 13.921875 37.304688 24.484375 29.953125 32.078125 C 22.609375 39.679688 12.492188 43.613281 -0.390625 43.875 L -3.859375 23 C 4.128906 23.519531 9.894531 22.003906 13.4375 18.453125 C 16.976562 14.910156 18.75 8.890625 18.75 0.390625 L 18.75 -93.9375 L 40.984375 -93.9375 L 40.984375 -20.6875 Z M 62.234375 -20.6875 "/></g></g></g><g fill="#1c75bc" fill-opacity="1"><g transform="translate(495.984634, 1254.457165)"><g><path d="M 185.5625 -20.6875 C 188.144531 -20.6875 189.4375 -17.269531 189.4375 -10.4375 C 189.4375 -3.476562 188.144531 0 185.5625 0 L 174.9375 0 C 163.976562 0 154.957031 -2.769531 147.875 -8.3125 C 141.8125 -2.769531 132.789062 0 120.8125 0 C 109.082031 0 99.738281 -2.769531 92.78125 -8.3125 C 86.726562 -2.769531 77.707031 0 65.71875 0 C 53.988281 0 44.644531 -2.769531 37.6875 -8.3125 C 31.375 -2.769531 22.035156 0 9.671875 0 L 0 0 C -2.570312 0 -3.859375 -3.476562 -3.859375 -10.4375 C -3.859375 -17.269531 -2.570312 -20.6875 0 -20.6875 L 7.921875 -20.6875 C 14.878906 -20.6875 19.644531 -22.070312 22.21875 -24.84375 C 24.800781 -27.613281 26.09375 -32.410156 26.09375 -39.234375 L 26.09375 -74.8125 L 48.328125 -74.8125 L 48.328125 -39.046875 C 48.328125 -33.378906 47.742188 -28.289062 46.578125 -23.78125 C 50.316406 -21.71875 55.472656 -20.6875 62.046875 -20.6875 C 69.523438 -20.6875 74.582031 -22.035156 77.21875 -24.734375 C 79.863281 -27.441406 81.1875 -32.273438 81.1875 -39.234375 L 81.1875 -84.46875 L 103.40625 -84.46875 L 103.40625 -39.046875 C 103.40625 -33.378906 102.828125 -28.289062 101.671875 -23.78125 C 105.410156 -21.71875 110.566406 -20.6875 117.140625 -20.6875 C 124.609375 -20.6875 129.664062 -22.035156 132.3125 -24.734375 C 134.957031 -27.441406 136.28125 -32.273438 136.28125 -39.234375 L 136.28125 -94.140625 L 158.5 -94.140625 L 158.5 -39.046875 C 158.5 -33.378906 157.921875 -28.222656 156.765625 -23.578125 C 159.984375 -21.648438 164.039062 -20.6875 168.9375 -20.6875 Z M 91.8125 -156 C 94.90625 -156 97.484375 -154.898438 99.546875 -152.703125 C 101.609375 -150.515625 102.640625 -147.8125 102.640625 -144.59375 C 102.640625 -141.238281 101.640625 -138.53125 99.640625 -136.46875 C 97.640625 -134.40625 95.03125 -133.375 91.8125 -133.375 C 88.59375 -133.375 85.984375 -134.40625 83.984375 -136.46875 C 81.984375 -138.53125 80.984375 -141.238281 80.984375 -144.59375 C 80.984375 -147.8125 82.015625 -150.515625 84.078125 -152.703125 C 86.140625 -154.898438 88.71875 -156 91.8125 -156 Z M 76.546875 -131.0625 C 79.898438 -131.0625 82.703125 -129.898438 84.953125 -127.578125 C 87.210938 -125.265625 88.34375 -122.363281 88.34375 -118.875 C 88.34375 -115.269531 87.210938 -112.335938 84.953125 -110.078125 C 82.703125 -107.828125 79.898438 -106.703125 76.546875 -106.703125 C 73.191406 -106.703125 70.382812 -107.859375 68.125 -110.171875 C 65.875 -112.492188 64.75 -115.394531 64.75 -118.875 C 64.75 -122.363281 65.875 -125.265625 68.125 -127.578125 C 70.382812 -129.898438 73.191406 -131.0625 76.546875 -131.0625 Z M 107.078125 -131.0625 C 110.429688 -131.0625 113.234375 -129.898438 115.484375 -127.578125 C 117.742188 -125.265625 118.875 -122.363281 118.875 -118.875 C 118.875 -115.269531 117.742188 -112.335938 115.484375 -110.078125 C 113.234375 -107.828125 110.429688 -106.703125 107.078125 -106.703125 C 103.734375 -106.703125 100.929688 -107.859375 98.671875 -110.171875 C 96.421875 -112.492188 95.296875 -115.394531 95.296875 -118.875 C 95.296875 -122.363281 96.421875 -125.265625 98.671875 -127.578125 C 100.929688 -129.898438 103.734375 -131.0625 107.078125 -131.0625 Z M 107.078125 -131.0625 "/></g></g></g><g fill="#1c75bc" fill-opacity="1"><g transform="translate(681.55708, 1254.457165)"><g><path d="M 14.890625 -143.234375 L 37.109375 -143.234375 L 37.109375 0 L 0 0 C -2.570312 0 -3.859375 -3.476562 -3.859375 -10.4375 C -3.859375 -17.269531 -2.570312 -20.6875 0 -20.6875 L 14.890625 -20.6875 Z M 14.890625 -143.234375 "/></g></g></g><g fill="#1c75bc" fill-opacity="1"><g transform="translate(734.135933, 1254.457165)"><g><path d="M 39.625 0 L 17.390625 0 L 17.390625 -143.234375 L 39.625 -143.234375 Z M 39.625 0 "/></g></g></g><g fill="#1c75bc" fill-opacity="1"><g transform="translate(791.160775, 1254.457165)"><g/></g></g><g fill="#1c75bc" fill-opacity="1"><g transform="translate(843.35302, 1254.457165)"><g><path d="M 125.84375 -20.6875 C 128.414062 -20.6875 129.703125 -17.269531 129.703125 -10.4375 C 129.703125 -3.476562 128.414062 0 125.84375 0 L 121.78125 0 C 105.925781 0 95.035156 -4.570312 89.109375 -13.71875 C 84.472656 -11.53125 79.445312 -9.757812 74.03125 -8.40625 C 68.625 -7.050781 63.40625 -6.375 58.375 -6.375 C 49.226562 -6.375 40.785156 -8.46875 33.046875 -12.65625 C 25.316406 -16.84375 19.164062 -22.578125 14.59375 -29.859375 C 10.019531 -37.140625 7.734375 -45.097656 7.734375 -53.734375 C 7.734375 -62.492188 10.019531 -70.484375 14.59375 -77.703125 C 19.164062 -84.921875 25.316406 -90.65625 33.046875 -94.90625 C 40.785156 -99.15625 49.164062 -101.28125 58.1875 -101.28125 L 83.125 -101.28125 L 83.125 -106.125 L 105.34375 -106.125 L 105.34375 -39.234375 C 105.34375 -32.410156 106.628906 -27.613281 109.203125 -24.84375 C 111.785156 -22.070312 116.554688 -20.6875 123.515625 -20.6875 Z M 58.953125 -27.25 C 66.941406 -27.25 75.0625 -29.570312 83.3125 -34.21875 C 83.1875 -35.25 83.125 -36.859375 83.125 -39.046875 L 83.125 -80.609375 L 58.1875 -80.609375 C 53.03125 -80.609375 48.289062 -79.414062 43.96875 -77.03125 C 39.65625 -74.644531 36.242188 -71.390625 33.734375 -67.265625 C 31.222656 -63.140625 29.96875 -58.628906 29.96875 -53.734375 C 29.96875 -48.835938 31.191406 -44.390625 33.640625 -40.390625 C 36.085938 -36.398438 39.53125 -33.210938 43.96875 -30.828125 C 48.414062 -28.441406 53.410156 -27.25 58.953125 -27.25 Z M 43.109375 -115.40625 C 39.753906 -115.40625 36.953125 -116.5625 34.703125 -118.875 C 32.453125 -121.195312 31.328125 -124.097656 31.328125 -127.578125 C 31.328125 -131.054688 32.453125 -133.957031 34.703125 -136.28125 C 36.953125 -138.601562 39.753906 -139.765625 43.109375 -139.765625 C 46.460938 -139.765625 49.265625 -138.632812 51.515625 -136.375 C 53.773438 -134.125 54.90625 -131.191406 54.90625 -127.578125 C 54.90625 -124.097656 53.773438 -121.195312 51.515625 -118.875 C 49.265625 -116.5625 46.460938 -115.40625 43.109375 -115.40625 Z M 73.65625 -115.40625 C 70.300781 -115.40625 67.492188 -116.5625 65.234375 -118.875 C 62.984375 -121.195312 61.859375 -124.097656 61.859375 -127.578125 C 61.859375 -131.054688 62.984375 -133.957031 65.234375 -136.28125 C 67.492188 -138.601562 70.300781 -139.765625 73.65625 -139.765625 C 77 -139.765625 79.796875 -138.632812 82.046875 -136.375 C 84.304688 -134.125 85.4375 -131.191406 85.4375 -127.578125 C 85.4375 -124.097656 84.304688 -121.195312 82.046875 -118.875 C 79.796875 -116.5625 77 -115.40625 73.65625 -115.40625 Z M 73.65625 -115.40625 "/></g></g></g><g fill="#1c75bc" fill-opacity="1"><g transform="translate(969.194342, 1254.457165)"><g><path d="M 39.4375 -87.75 C 51.800781 -83.882812 61.625 -76.054688 68.90625 -64.265625 C 76.1875 -52.472656 79.828125 -37.945312 79.828125 -20.6875 L 79.828125 0 L 0 0 C -2.570312 0 -3.859375 -3.476562 -3.859375 -10.4375 C -3.859375 -17.269531 -2.570312 -20.6875 0 -20.6875 L 57.609375 -20.6875 L 57.609375 -22.234375 C 57.609375 -37.046875 54.414062 -48.539062 48.03125 -56.71875 C 41.65625 -64.90625 32.601562 -69 20.875 -69 L 6.953125 -83.703125 L 57.21875 -134.53125 L 71.140625 -119.84375 Z M 39.4375 -87.75 "/></g></g></g><g fill="#1c75bc" fill-opacity="1"><g transform="translate(1062.560515, 1254.457165)"><g><path d="M 62.234375 -20.6875 C 64.816406 -20.6875 66.109375 -17.269531 66.109375 -10.4375 C 66.109375 -3.476562 64.816406 0 62.234375 0 L 40.984375 0 L 40.984375 0.390625 C 40.984375 13.921875 37.304688 24.484375 29.953125 32.078125 C 22.609375 39.679688 12.492188 43.613281 -0.390625 43.875 L -3.859375 23 C 4.128906 23.519531 9.894531 22.003906 13.4375 18.453125 C 16.976562 14.910156 18.75 8.890625 18.75 0.390625 L 18.75 -93.9375 L 40.984375 -93.9375 L 40.984375 -20.6875 Z M 62.234375 -20.6875 "/></g></g></g><g fill="#1c75bc" fill-opacity="1"><g transform="translate(1124.80456, 1254.457165)"><g><path d="M 136.28125 -94.140625 L 158.5 -94.140625 L 158.5 -39.046875 C 158.5 -25.898438 155.4375 -16.101562 149.3125 -9.65625 C 143.195312 -3.21875 133.695312 0 120.8125 0 C 109.082031 0 99.738281 -2.769531 92.78125 -8.3125 C 86.726562 -2.769531 77.707031 0 65.71875 0 C 53.988281 0 44.644531 -2.769531 37.6875 -8.3125 C 31.375 -2.769531 22.035156 0 9.671875 0 L 0 0 C -2.570312 0 -3.859375 -3.476562 -3.859375 -10.4375 C -3.859375 -17.269531 -2.570312 -20.6875 0 -20.6875 L 7.921875 -20.6875 C 14.878906 -20.6875 19.644531 -22.070312 22.21875 -24.84375 C 24.800781 -27.613281 26.09375 -32.410156 26.09375 -39.234375 L 26.09375 -74.8125 L 48.328125 -74.8125 L 48.328125 -39.046875 C 48.328125 -33.378906 47.742188 -28.289062 46.578125 -23.78125 C 50.316406 -21.71875 55.472656 -20.6875 62.046875 -20.6875 C 69.523438 -20.6875 74.582031 -22.035156 77.21875 -24.734375 C 79.863281 -27.441406 81.1875 -32.273438 81.1875 -39.234375 L 81.1875 -84.46875 L 103.40625 -84.46875 L 103.40625 -39.046875 C 103.40625 -33.378906 102.828125 -28.289062 101.671875 -23.78125 C 105.410156 -21.71875 110.566406 -20.6875 117.140625 -20.6875 C 124.609375 -20.6875 129.664062 -22.035156 132.3125 -24.734375 C 134.957031 -27.441406 136.28125 -32.273438 136.28125 -39.234375 Z M 91.8125 -156 C 94.90625 -156 97.484375 -154.898438 99.546875 -152.703125 C 101.609375 -150.515625 102.640625 -147.8125 102.640625 -144.59375 C 102.640625 -141.238281 101.640625 -138.53125 99.640625 -136.46875 C 97.640625 -134.40625 95.03125 -133.375 91.8125 -133.375 C 88.59375 -133.375 85.984375 -134.40625 83.984375 -136.46875 C 81.984375 -138.53125 80.984375 -141.238281 80.984375 -144.59375 C 80.984375 -147.8125 82.015625 -150.515625 84.078125 -152.703125 C 86.140625 -154.898438 88.71875 -156 91.8125 -156 Z M 76.546875 -131.0625 C 79.898438 -131.0625 82.703125 -129.898438 84.953125 -127.578125 C 87.210938 -125.265625 88.34375 -122.363281 88.34375 -118.875 C 88.34375 -115.269531 87.210938 -112.335938 84.953125 -110.078125 C 82.703125 -107.828125 79.898438 -106.703125 76.546875 -106.703125 C 73.191406 -106.703125 70.382812 -107.859375 68.125 -110.171875 C 65.875 -112.492188 64.75 -115.394531 64.75 -118.875 C 64.75 -122.363281 65.875 -125.265625 68.125 -127.578125 C 70.382812 -129.898438 73.191406 -131.0625 76.546875 -131.0625 Z M 107.078125 -131.0625 C 110.429688 -131.0625 113.234375 -129.898438 115.484375 -127.578125 C 117.742188 -125.265625 118.875 -122.363281 118.875 -118.875 C 118.875 -115.269531 117.742188 -112.335938 115.484375 -110.078125 C 113.234375 -107.828125 110.429688 -106.703125 107.078125 -106.703125 C 103.734375 -106.703125 100.929688 -107.859375 98.671875 -110.171875 C 96.421875 -112.492188 95.296875 -115.394531 95.296875 -118.875 C 95.296875 -122.363281 96.421875 -125.265625 98.671875 -127.578125 C 100.929688 -129.898438 103.734375 -131.0625 107.078125 -131.0625 Z M 107.078125 -131.0625 "/></g></g></g><g fill="#1c75bc" fill-opacity="1"><g transform="translate(246.645463, 1403.073437)"><g><path d="M 33.4375 19.625 C 27.34375 19.625 22.054688 18.175781 17.578125 15.28125 C 13.097656 12.394531 9.679688 8.472656 7.328125 3.515625 C 4.984375 -1.429688 3.8125 -6.890625 3.8125 -12.859375 C 3.8125 -16.484375 4.253906 -20.265625 5.140625 -24.203125 L 15.90625 -22.578125 C 15.144531 -18.640625 14.765625 -15.304688 14.765625 -12.578125 C 14.765625 -8.253906 15.523438 -4.425781 17.046875 -1.09375 C 18.578125 2.238281 20.753906 4.828125 23.578125 6.671875 C 26.410156 8.515625 29.695312 9.4375 33.4375 9.4375 C 37.1875 9.4375 40.472656 8.515625 43.296875 6.671875 C 46.128906 4.828125 48.304688 2.238281 49.828125 -1.09375 C 51.359375 -4.425781 52.125 -8.285156 52.125 -12.671875 L 52.125 -70.609375 L 63.078125 -70.609375 L 63.078125 -13.046875 C 63.078125 -7.015625 61.898438 -1.507812 59.546875 3.46875 C 57.203125 8.457031 53.789062 12.394531 49.3125 15.28125 C 44.832031 18.175781 39.539062 19.625 33.4375 19.625 Z M 33.4375 19.625 "/></g></g></g><g fill="#1c75bc" fill-opacity="1"><g transform="translate(316.393509, 1403.073437)"><g><path d="M 30.875 -10.1875 C 32.144531 -10.1875 32.78125 -8.503906 32.78125 -5.140625 C 32.78125 -1.710938 32.144531 0 30.875 0 L 8.578125 0 L 8.578125 -70.609375 L 19.53125 -70.609375 L 19.53125 -10.1875 Z M 30.875 -10.1875 "/></g></g></g><g fill="#1c75bc" fill-opacity="1"><g transform="translate(347.265588, 1403.073437)"><g><path d="M 72.125 -10.1875 C 73.394531 -10.1875 74.03125 -8.503906 74.03125 -5.140625 C 74.03125 -1.710938 73.394531 0 72.125 0 L 71.46875 0 C 65.300781 0 60.375 -1.679688 56.6875 -5.046875 C 52.5 -3.398438 48.117188 -2.144531 43.546875 -1.28125 C 38.972656 -0.425781 34.875 0 31.25 0 C 25.21875 0 19.34375 -1.269531 13.625 -3.8125 C 10.320312 -1.269531 6.222656 0 1.328125 0 L 0 0 C -1.269531 0 -1.90625 -1.710938 -1.90625 -5.140625 C -1.90625 -8.503906 -1.269531 -10.1875 0 -10.1875 L 1.328125 -10.1875 C 5.648438 -10.1875 8.003906 -11.90625 8.390625 -15.34375 C 8.765625 -19.65625 9.363281 -23.765625 10.1875 -27.671875 C 11.019531 -31.578125 13.003906 -35.644531 16.140625 -39.875 C 19.285156 -44.101562 23.878906 -46.21875 29.921875 -46.21875 C 34.367188 -46.21875 38.59375 -44.945312 42.59375 -42.40625 C 46.59375 -39.863281 50.003906 -36.335938 52.828125 -31.828125 C 55.660156 -27.316406 57.550781 -22.234375 58.5 -16.578125 C 59.195312 -14.546875 60.40625 -12.972656 62.125 -11.859375 C 63.84375 -10.742188 65.96875 -10.1875 68.5 -10.1875 Z M 19.0625 -12.671875 C 23 -11.015625 27.09375 -10.1875 31.34375 -10.1875 C 36.675781 -10.1875 42.171875 -11.109375 47.828125 -12.953125 C 47.316406 -17.148438 46.1875 -21.023438 44.4375 -24.578125 C 42.695312 -28.140625 40.585938 -30.9375 38.109375 -32.96875 C 35.628906 -35 33.085938 -36.015625 30.484375 -36.015625 C 27.753906 -36.015625 25.609375 -34.945312 24.046875 -32.8125 C 22.492188 -30.6875 21.429688 -28.273438 20.859375 -25.578125 C 20.296875 -22.878906 19.851562 -19.785156 19.53125 -16.296875 L 19.25 -13.625 C 19.25 -13.5 19.1875 -13.179688 19.0625 -12.671875 Z M 19.0625 -12.671875 "/></g></g></g><g fill="#1c75bc" fill-opacity="1"><g transform="translate(419.395729, 1403.073437)"><g><path d="M 55.078125 -10.1875 L 55.078125 0 L 0 0 C -1.269531 0 -1.90625 -1.710938 -1.90625 -5.140625 C -1.90625 -8.503906 -1.269531 -10.1875 0 -10.1875 L 11.71875 -10.1875 C 8.863281 -14.132812 7.4375 -18.710938 7.4375 -23.921875 C 7.4375 -28.679688 8.609375 -32.984375 10.953125 -36.828125 C 13.304688 -40.671875 16.515625 -43.6875 20.578125 -45.875 C 24.640625 -48.070312 29.085938 -49.171875 33.921875 -49.171875 C 40.015625 -49.171875 46.554688 -47.484375 53.546875 -44.109375 L 48.6875 -35.0625 C 42.78125 -37.664062 37.890625 -38.96875 34.015625 -38.96875 C 31.023438 -38.96875 28.335938 -38.316406 25.953125 -37.015625 C 23.578125 -35.710938 21.722656 -33.914062 20.390625 -31.625 C 19.054688 -29.34375 18.390625 -26.804688 18.390625 -24.015625 C 18.390625 -20.578125 19.390625 -17.601562 21.390625 -15.09375 C 23.390625 -12.59375 26.070312 -10.957031 29.4375 -10.1875 Z M 55.078125 -10.1875 "/></g></g></g><g fill="#1c75bc" fill-opacity="1"><g transform="translate(477.328528, 1403.073437)"><g><path d="M 43.640625 -10.1875 L 43.640625 -70.609375 L 54.59375 -70.609375 L 54.59375 0 L 3.8125 0 L 3.8125 -10.1875 L 15.90625 -10.1875 L 15.90625 -57.171875 L 26.875 -57.171875 L 26.875 -10.1875 Z M 31.0625 -69.09375 L 31.0625 -62.515625 L 11.53125 -62.515625 L 11.53125 -69.09375 L 13.4375 -69.09375 C 12.925781 -70.289062 12.671875 -71.492188 12.671875 -72.703125 C 12.671875 -75.304688 13.625 -77.414062 15.53125 -79.03125 C 17.4375 -80.65625 19.851562 -81.46875 22.78125 -81.46875 C 24.050781 -81.46875 25.367188 -81.320312 26.734375 -81.03125 C 28.097656 -80.75 29.253906 -80.390625 30.203125 -79.953125 L 27.34375 -73.953125 C 26.832031 -74.203125 26.164062 -74.421875 25.34375 -74.609375 C 24.519531 -74.804688 23.726562 -74.90625 22.96875 -74.90625 C 21.757812 -74.90625 20.789062 -74.632812 20.0625 -74.09375 C 19.332031 -73.550781 18.96875 -72.867188 18.96875 -72.046875 C 18.96875 -71.335938 19.269531 -70.664062 19.875 -70.03125 C 20.476562 -69.40625 21.253906 -69.09375 22.203125 -69.09375 Z M 31.0625 -69.09375 "/></g></g></g><g fill="#1c75bc" fill-opacity="1"><g transform="translate(538.596288, 1403.073437)"><g><path d="M 19.53125 0 L 8.578125 0 L 8.578125 -70.609375 L 19.53125 -70.609375 Z M 19.53125 0 "/></g></g></g><g fill="#1c75bc" fill-opacity="1"><g transform="translate(566.705122, 1403.073437)"><g/></g></g><g fill="#1c75bc" fill-opacity="1"><g transform="translate(592.431878, 1403.073437)"><g><path d="M 30.6875 -10.1875 C 31.957031 -10.1875 32.59375 -8.503906 32.59375 -5.140625 C 32.59375 -1.710938 31.957031 0 30.6875 0 L 20.203125 0 L 20.203125 0.1875 C 20.203125 6.851562 18.390625 12.0625 14.765625 15.8125 C 11.148438 19.5625 6.164062 21.5 -0.1875 21.625 L -1.90625 11.34375 C 2.03125 11.59375 4.875 10.84375 6.625 9.09375 C 8.375 7.351562 9.25 4.382812 9.25 0.1875 L 9.25 -46.3125 L 20.203125 -46.3125 L 20.203125 -10.1875 Z M 30.6875 -10.1875 "/></g></g></g><g fill="#1c75bc" fill-opacity="1"><g transform="translate(623.113391, 1403.073437)"><g><path d="M 10.09375 -46.3125 L 21.0625 -46.3125 L 21.0625 0 L 0 0 C -1.269531 0 -1.90625 -1.710938 -1.90625 -5.140625 C -1.90625 -8.503906 -1.269531 -10.1875 0 -10.1875 L 10.09375 -10.1875 Z M 8.09375 19.34375 C 6.4375 19.34375 5.050781 18.769531 3.9375 17.625 C 2.832031 16.488281 2.28125 15.0625 2.28125 13.34375 C 2.28125 11.625 2.832031 10.191406 3.9375 9.046875 C 5.050781 7.910156 6.4375 7.34375 8.09375 7.34375 C 9.75 7.34375 11.128906 7.894531 12.234375 9 C 13.347656 10.113281 13.90625 11.5625 13.90625 13.34375 C 13.90625 15.0625 13.347656 16.488281 12.234375 17.625 C 11.128906 18.769531 9.75 19.34375 8.09375 19.34375 Z M 23.15625 19.34375 C 21.5 19.34375 20.113281 18.769531 19 17.625 C 17.894531 16.488281 17.34375 15.0625 17.34375 13.34375 C 17.34375 11.625 17.894531 10.191406 19 9.046875 C 20.113281 7.910156 21.5 7.34375 23.15625 7.34375 C 24.800781 7.34375 26.175781 7.894531 27.28125 9 C 28.394531 10.113281 28.953125 11.5625 28.953125 13.34375 C 28.953125 15.0625 28.394531 16.488281 27.28125 17.625 C 26.175781 18.769531 24.800781 19.34375 23.15625 19.34375 Z M 23.15625 19.34375 "/></g></g></g><g fill="#1c75bc" fill-opacity="1"><g transform="translate(650.841093, 1403.073437)"><g><path d="M 62.796875 -10.1875 C 64.066406 -10.1875 64.703125 -8.503906 64.703125 -5.140625 C 64.703125 -1.710938 64.066406 0 62.796875 0 L 51.734375 0 L 51.734375 0.1875 C 51.734375 6.988281 49.890625 12.257812 46.203125 16 C 42.523438 19.75 37.476562 21.625 31.0625 21.625 L 12.484375 21.625 L 12.484375 11.4375 L 30.96875 11.4375 C 34.394531 11.4375 36.882812 10.546875 38.4375 8.765625 C 40 6.984375 40.78125 4.125 40.78125 0.1875 L 40.78125 0 L 28.6875 0 C 23.789062 0 19.453125 -1.09375 15.671875 -3.28125 C 11.890625 -5.476562 8.96875 -8.414062 6.90625 -12.09375 C 4.84375 -15.78125 3.8125 -19.847656 3.8125 -24.296875 C 3.8125 -28.804688 4.890625 -32.953125 7.046875 -36.734375 C 9.210938 -40.515625 12.28125 -43.515625 16.25 -45.734375 C 20.21875 -47.953125 24.835938 -49.0625 30.109375 -49.0625 C 33.597656 -49.0625 37.296875 -48.585938 41.203125 -47.640625 C 45.109375 -46.691406 48.617188 -45.390625 51.734375 -43.734375 L 51.734375 -10.1875 Z M 40.78125 -10.1875 L 40.78125 -37.0625 C 37.15625 -38.269531 33.628906 -38.875 30.203125 -38.875 C 25.441406 -38.875 21.675781 -37.539062 18.90625 -34.875 C 16.144531 -32.207031 14.765625 -28.679688 14.765625 -24.296875 C 14.765625 -20.109375 16.050781 -16.707031 18.625 -14.09375 C 21.195312 -11.488281 24.550781 -10.1875 28.6875 -10.1875 Z M 40.78125 -10.1875 "/></g></g></g><g fill="#1c75bc" fill-opacity="1"><g transform="translate(713.633401, 1403.073437)"><g><path d="M 94.609375 -10.1875 C 95.878906 -10.1875 96.515625 -8.503906 96.515625 -5.140625 C 96.515625 -1.710938 95.878906 0 94.609375 0 L 0 0 C -1.269531 0 -1.90625 -1.710938 -1.90625 -5.140625 C -1.90625 -8.503906 -1.269531 -10.1875 0 -10.1875 L 10.953125 -10.1875 L 10.953125 -70.609375 L 21.921875 -70.609375 L 21.921875 -27.625 C 24.585938 -33.851562 28.347656 -38.859375 33.203125 -42.640625 C 38.066406 -46.421875 44.242188 -48.3125 51.734375 -48.3125 C 58.023438 -48.3125 63.328125 -46.941406 67.640625 -44.203125 C 71.960938 -41.472656 75.171875 -37.757812 77.265625 -33.0625 C 79.367188 -28.363281 80.421875 -23.125 80.421875 -17.34375 L 80.421875 -10.1875 Z M 69.453125 -10.1875 L 69.453125 -17.34375 C 69.453125 -24.007812 67.894531 -29.132812 64.78125 -32.71875 C 61.675781 -36.3125 57.425781 -38.109375 52.03125 -38.109375 C 47.445312 -38.109375 43.125 -36.867188 39.0625 -34.390625 C 35 -31.921875 31.535156 -28.539062 28.671875 -24.25 C 25.816406 -19.957031 23.847656 -15.269531 22.765625 -10.1875 Z M 69.453125 -10.1875 "/></g></g></g><g fill="#1c75bc" fill-opacity="1"><g transform="translate(808.250619, 1403.073437)"><g><path d="M 10.09375 -46.3125 L 21.0625 -46.3125 L 21.0625 0 L 0 0 C -1.269531 0 -1.90625 -1.710938 -1.90625 -5.140625 C -1.90625 -8.503906 -1.269531 -10.1875 0 -10.1875 L 10.09375 -10.1875 Z M 8.09375 -52.984375 C 6.4375 -52.984375 5.050781 -53.550781 3.9375 -54.6875 C 2.832031 -55.832031 2.28125 -57.265625 2.28125 -58.984375 C 2.28125 -60.703125 2.832031 -62.128906 3.9375 -63.265625 C 5.050781 -64.410156 6.4375 -64.984375 8.09375 -64.984375 C 9.75 -64.984375 11.128906 -64.425781 12.234375 -63.3125 C 13.347656 -62.207031 13.90625 -60.765625 13.90625 -58.984375 C 13.90625 -57.265625 13.347656 -55.832031 12.234375 -54.6875 C 11.128906 -53.550781 9.75 -52.984375 8.09375 -52.984375 Z M 23.15625 -52.984375 C 21.5 -52.984375 20.113281 -53.550781 19 -54.6875 C 17.894531 -55.832031 17.34375 -57.265625 17.34375 -58.984375 C 17.34375 -60.703125 17.894531 -62.128906 19 -63.265625 C 20.113281 -64.410156 21.5 -64.984375 23.15625 -64.984375 C 24.800781 -64.984375 26.175781 -64.425781 27.28125 -63.3125 C 28.394531 -62.207031 28.953125 -60.765625 28.953125 -58.984375 C 28.953125 -57.265625 28.394531 -55.832031 27.28125 -54.6875 C 26.175781 -53.550781 24.800781 -52.984375 23.15625 -52.984375 Z M 23.15625 -52.984375 "/></g></g></g><g fill="#1c75bc" fill-opacity="1"><g transform="translate(835.978321, 1403.073437)"><g/></g></g><g fill="#1c75bc" fill-opacity="1"><g transform="translate(861.705042, 1403.073437)"><g><path d="M 30.109375 -49.0625 C 33.597656 -49.0625 37.296875 -48.585938 41.203125 -47.640625 C 45.109375 -46.691406 48.617188 -45.390625 51.734375 -43.734375 L 51.734375 0.1875 C 51.734375 6.988281 49.890625 12.257812 46.203125 16 C 42.523438 19.75 37.476562 21.625 31.0625 21.625 L 12.484375 21.625 L 12.484375 11.4375 L 30.96875 11.4375 C 34.394531 11.4375 36.882812 10.546875 38.4375 8.765625 C 40 6.984375 40.78125 4.125 40.78125 0.1875 L 40.78125 0 L 28.6875 0 C 23.789062 0 19.453125 -1.09375 15.671875 -3.28125 C 11.890625 -5.476562 8.96875 -8.414062 6.90625 -12.09375 C 4.84375 -15.78125 3.8125 -19.847656 3.8125 -24.296875 C 3.8125 -28.804688 4.890625 -32.953125 7.046875 -36.734375 C 9.210938 -40.515625 12.28125 -43.515625 16.25 -45.734375 C 20.21875 -47.953125 24.835938 -49.0625 30.109375 -49.0625 Z M 40.78125 -10.1875 L 40.78125 -37.0625 C 37.15625 -38.269531 33.628906 -38.875 30.203125 -38.875 C 25.441406 -38.875 21.675781 -37.539062 18.90625 -34.875 C 16.144531 -32.207031 14.765625 -28.679688 14.765625 -24.296875 C 14.765625 -20.109375 16.050781 -16.707031 18.625 -14.09375 C 21.195312 -11.488281 24.550781 -10.1875 28.6875 -10.1875 Z M 40.78125 -10.1875 "/></g></g></g><g fill="#1c75bc" fill-opacity="1"><g transform="translate(919.161391, 1403.073437)"><g/></g></g><g fill="#1c75bc" fill-opacity="1"><g transform="translate(944.888112, 1403.073437)"><g><path d="M 92.234375 -10.1875 C 93.503906 -10.1875 94.140625 -8.503906 94.140625 -5.140625 C 94.140625 -1.710938 93.503906 0 92.234375 0 L 86.984375 0 C 81.585938 0 77.144531 -1.363281 73.65625 -4.09375 C 70.664062 -1.363281 66.0625 0 59.84375 0 L 25.71875 0 C 19.113281 0 13.96875 -1.875 10.28125 -5.625 C 6.601562 -9.375 4.765625 -14.519531 4.765625 -21.0625 C 4.765625 -25.507812 5.648438 -29.414062 7.421875 -32.78125 C 9.203125 -36.144531 11.8125 -39.160156 15.25 -41.828125 L 22.671875 -34.390625 C 20.265625 -32.234375 18.503906 -30.085938 17.390625 -27.953125 C 16.273438 -25.828125 15.71875 -23.5625 15.71875 -21.15625 C 15.71875 -17.789062 16.671875 -15.117188 18.578125 -13.140625 C 20.484375 -11.171875 23.148438 -10.1875 26.578125 -10.1875 L 58.984375 -10.1875 C 62.410156 -10.1875 64.757812 -10.867188 66.03125 -12.234375 C 67.300781 -13.609375 67.9375 -15.976562 67.9375 -19.34375 L 67.9375 -46.3125 L 78.890625 -46.3125 L 78.890625 -19.25 C 78.890625 -16.382812 78.601562 -13.84375 78.03125 -11.625 C 79.6875 -10.664062 81.6875 -10.1875 84.03125 -10.1875 Z M 42.296875 20.875 C 40.460938 20.875 38.941406 20.238281 37.734375 18.96875 C 36.523438 17.695312 35.921875 16.109375 35.921875 14.203125 C 35.921875 12.296875 36.523438 10.722656 37.734375 9.484375 C 38.941406 8.242188 40.460938 7.625 42.296875 7.625 C 44.140625 7.625 45.664062 8.242188 46.875 9.484375 C 48.082031 10.722656 48.6875 12.296875 48.6875 14.203125 C 48.6875 16.109375 48.082031 17.695312 46.875 18.96875 C 45.664062 20.238281 44.140625 20.875 42.296875 20.875 Z M 42.296875 20.875 "/></g></g></g><g fill="#1c75bc" fill-opacity="1"><g transform="translate(1037.123218, 1403.073437)"><g><path d="M 10.09375 -46.3125 L 21.0625 -46.3125 L 21.0625 0 L 0 0 C -1.269531 0 -1.90625 -1.710938 -1.90625 -5.140625 C -1.90625 -8.503906 -1.269531 -10.1875 0 -10.1875 L 10.09375 -10.1875 Z M 8.09375 19.34375 C 6.4375 19.34375 5.050781 18.769531 3.9375 17.625 C 2.832031 16.488281 2.28125 15.0625 2.28125 13.34375 C 2.28125 11.625 2.832031 10.191406 3.9375 9.046875 C 5.050781 7.910156 6.4375 7.34375 8.09375 7.34375 C 9.75 7.34375 11.128906 7.894531 12.234375 9 C 13.347656 10.113281 13.90625 11.5625 13.90625 13.34375 C 13.90625 15.0625 13.347656 16.488281 12.234375 17.625 C 11.128906 18.769531 9.75 19.34375 8.09375 19.34375 Z M 23.15625 19.34375 C 21.5 19.34375 20.113281 18.769531 19 17.625 C 17.894531 16.488281 17.34375 15.0625 17.34375 13.34375 C 17.34375 11.625 17.894531 10.191406 19 9.046875 C 20.113281 7.910156 21.5 7.34375 23.15625 7.34375 C 24.800781 7.34375 26.175781 7.894531 27.28125 9 C 28.394531 10.113281 28.953125 11.5625 28.953125 13.34375 C 28.953125 15.0625 28.394531 16.488281 27.28125 17.625 C 26.175781 18.769531 24.800781 19.34375 23.15625 19.34375 Z M 23.15625 19.34375 "/></g></g></g><g fill="#1c75bc" fill-opacity="1"><g transform="translate(1064.850953, 1403.073437)"><g><path d="M -1.90625 11.34375 C 2.03125 11.59375 4.875 10.84375 6.625 9.09375 C 8.375 7.351562 9.25 4.382812 9.25 0.1875 L 9.25 -46.3125 L 20.203125 -46.3125 L 20.203125 0.1875 C 20.203125 6.851562 18.390625 12.0625 14.765625 15.8125 C 11.148438 19.5625 6.164062 21.5 -0.1875 21.625 Z M -1.90625 11.34375 "/></g></g></g><g fill="#1c75bc" fill-opacity="1"><g transform="translate(1090.768242, 1403.073437)"><g><path d="M 70.40625 -10.1875 C 71.675781 -10.1875 72.3125 -8.503906 72.3125 -5.140625 C 72.3125 -1.710938 71.675781 0 70.40625 0 L 62.984375 0 C 56.941406 0 52.238281 -1.363281 48.875 -4.09375 C 40.8125 -1.363281 31.828125 0 21.921875 0 C 15.691406 0 9.65625 -0.601562 3.8125 -1.8125 L 3.8125 -12.296875 C 9.59375 -10.890625 15.660156 -10.1875 22.015625 -10.1875 C 29.691406 -10.1875 36.707031 -11.175781 43.0625 -13.15625 C 42.8125 -13.65625 42.242188 -15.207031 41.359375 -17.8125 L 29.34375 -52.59375 L 39.640625 -55.828125 L 51.640625 -21.0625 C 52.847656 -17.4375 53.832031 -14.941406 54.59375 -13.578125 C 55.351562 -12.210938 56.289062 -11.320312 57.40625 -10.90625 C 58.519531 -10.5 60.378906 -10.296875 62.984375 -10.296875 L 70.40625 -10.296875 Z M 70.40625 -10.1875 "/></g></g></g><g fill="#1c75bc" fill-opacity="1"><g transform="translate(1161.183303, 1403.073437)"><g><path d="M 37.25 -10.1875 C 38.519531 -10.1875 39.15625 -8.503906 39.15625 -5.140625 C 39.15625 -1.710938 38.519531 0 37.25 0 L 32.015625 0 C 26.617188 0 22.171875 -1.363281 18.671875 -4.09375 C 15.691406 -1.363281 11.085938 0 4.859375 0 L 0 0 C -1.269531 0 -1.90625 -1.710938 -1.90625 -5.140625 C -1.90625 -8.503906 -1.269531 -10.1875 0 -10.1875 L 4 -10.1875 C 7.425781 -10.1875 9.773438 -10.867188 11.046875 -12.234375 C 12.316406 -13.609375 12.953125 -15.976562 12.953125 -19.34375 L 12.953125 -46.3125 L 23.921875 -46.3125 L 23.921875 -19.25 C 23.921875 -16.382812 23.632812 -13.84375 23.0625 -11.625 C 24.707031 -10.664062 26.707031 -10.1875 29.0625 -10.1875 Z M 10.953125 -52.984375 C 9.296875 -52.984375 7.910156 -53.550781 6.796875 -54.6875 C 5.691406 -55.832031 5.140625 -57.265625 5.140625 -58.984375 C 5.140625 -60.703125 5.691406 -62.128906 6.796875 -63.265625 C 7.910156 -64.410156 9.296875 -64.984375 10.953125 -64.984375 C 12.609375 -64.984375 13.988281 -64.425781 15.09375 -63.3125 C 16.207031 -62.207031 16.765625 -60.765625 16.765625 -58.984375 C 16.765625 -57.265625 16.207031 -55.832031 15.09375 -54.6875 C 13.988281 -53.550781 12.609375 -52.984375 10.953125 -52.984375 Z M 26.015625 -52.984375 C 24.359375 -52.984375 22.972656 -53.550781 21.859375 -54.6875 C 20.753906 -55.832031 20.203125 -57.265625 20.203125 -58.984375 C 20.203125 -60.703125 20.753906 -62.128906 21.859375 -63.265625 C 22.972656 -64.410156 24.359375 -64.984375 26.015625 -64.984375 C 27.660156 -64.984375 29.035156 -64.425781 30.140625 -63.3125 C 31.253906 -62.207031 31.8125 -60.765625 31.8125 -58.984375 C 31.8125 -57.265625 31.253906 -55.832031 30.140625 -54.6875 C 29.035156 -53.550781 27.660156 -52.984375 26.015625 -52.984375 Z M 26.015625 -52.984375 "/></g></g></g><g fill="#1c75bc" fill-opacity="1"><g transform="translate(1198.439421, 1403.073437)"><g><path d="M 28.96875 -10.1875 C 30.238281 -10.1875 30.875 -8.503906 30.875 -5.140625 C 30.875 -1.710938 30.238281 0 28.96875 0 L 0 0 C -1.269531 0 -1.90625 -1.710938 -1.90625 -5.140625 C -1.90625 -8.503906 -1.269531 -10.1875 0 -10.1875 L 7.34375 -10.1875 L 7.34375 -70.609375 L 18.296875 -70.609375 L 18.296875 -10.1875 Z M 28.96875 -10.1875 "/></g></g></g><g fill="#1c75bc" fill-opacity="1"><g transform="translate(1227.405837, 1403.073437)"><g><path d="M 7.34375 -70.609375 L 18.296875 -70.609375 L 18.296875 0 L 0 0 C -1.269531 0 -1.90625 -1.710938 -1.90625 -5.140625 C -1.90625 -8.503906 -1.269531 -10.1875 0 -10.1875 L 7.34375 -10.1875 Z M 7.34375 -70.609375 "/></g></g></g></svg>