<svg xmlns="http://www.w3.org/2000/svg" xmlns:xlink="http://www.w3.org/1999/xlink" width="2000" zoomAndPan="magnify" viewBox="0 0 1500 1499.999933" height="2000" preserveAspectRatio="xMidYMid meet" version="1.0"><defs><clipPath id="407dd380cb"><path d="M 378.160156 74.011719 L 1121.839844 74.011719 L 1121.839844 1425 L 378.160156 1425 Z M 378.160156 74.011719 " clip-rule="nonzero"/></clipPath><clipPath id="874c705e55"><path d="M 1121.769531 789.148438 C 1121.769531 789.148438 1065.703125 713.574219 1013.855469 625.523438 C 961.832031 537.296875 873.605469 373.140625 845.660156 307.585938 C 799.4375 200.027344 770.789062 74.011719 770.789062 74.011719 C 770.789062 74.011719 707.519531 230.078125 789.421875 475.957031 C 836.699219 617.613281 900.144531 802.859375 814.554688 869.644531 C 780.105469 896.710938 723.863281 906.023438 677.464844 878.253906 C 624.738281 846.621094 601.539062 760.148438 621.050781 681.765625 C 654.089844 549.773438 714.550781 401.261719 635.109375 237.636719 C 611.734375 317.078125 556.019531 467.34375 508.917969 569.457031 C 453.03125 691.078125 378.160156 789.148438 378.160156 789.148438 L 670.613281 1364.035156 C 714.199219 1449.628906 837.753906 1445.761719 875.890625 1357.53125 Z M 1121.769531 789.148438 " clip-rule="nonzero"/></clipPath></defs><g clip-path="url(#407dd380cb)"><g clip-path="url(#874c705e55)"><path fill="#ffffff" d="M 378.160156 74.011719 L 1121.839844 74.011719 L 1121.839844 1424.835938 L 378.160156 1424.835938 Z M 378.160156 74.011719 " fill-opacity="1" fill-rule="nonzero"/></g></g></svg>